
        <svg xmlns="http://www.w3.org/2000/svg" xmlns:xlink="http://www.w3.org/1999/xlink" version="1.1" width="3185.7585139318885" height="1281.733746130031" viewBox="0 0 3185.7585139318885 1281.733746130031">
			
			<g transform="scale(9.287925696594428) translate(10, 10)">
				<defs id="SvgjsDefs1486"/><g id="SvgjsG1487" featureKey="symbolContainer" transform="matrix(1,0,0,1,0,0)" fill="#fff">    <path xmlns="http://www.w3.org/2000/svg" fill-rule="nonzero" d="             M0,0             H103             V118             H0,0             z             M4,4             v110             h95             v-110             z     "/></g><g id="SvgjsG1488" featureKey="symbolFeature-0" transform="matrix(0.9381521662887149,0,0,0.9381521662887149,6.968416874354416,14)" fill="#fff"><g xmlns="http://www.w3.org/2000/svg"><path d="M16.238,69.221c-2.861,7.646-5.035-23.379,1.227-29.467c0.124,3.205,1.203,3.803,2.01,6.627   c1.631-5.386,1.773-11.406,3.951-16.665c2.071-5.004,4.641-8.813,8.764-12.097c0.756,1.269,1.221,2.633,1.957,3.866   C38.679,5.734,55.402,7.111,66.637,0c0.372,2.816-1.193,5.962-1.49,8.763c-0.331,3.108-0.401,6.089-1.54,8.94   c-2.854,7.146-8.21,8.858-13.702,13.127c2.551-0.254,4.816-0.626,7.418-0.709c-4.278,1.021-4.527,5.329-6.11,8.227   c-2.351,4.303-5.308,4.836-9.206,6.949c2.374-0.488,5.678,0.698,7.334,2.185c-5.66,3.822-6.623,10.742-11.574,14.954   c-4.041,3.44-14.17,6.236-15.429,11.627l-9.261,16.238c0,0,17.01-56.831,36.569-70.855C49.646,19.445,35.067,18.889,16.238,69.221z   "/><g><path d="M17.18,96c-2.063,0-4.154-0.689-5.998-2.848c-0.732-0.857-0.631-2.146,0.227-2.879c0.858-0.734,2.147-0.632,2.88,0.227    c1.749,2.047,3.542,1.685,7.517,0.302c0.775-0.271,1.578-0.55,2.392-0.784c2.288-0.659,4.58-1.396,6.796-2.108    c6.469-2.08,13.158-4.231,20.396-4.649c2.004-0.104,3.694,0.566,5.189,1.166c0.838,0.337,1.631,0.654,2.411,0.813    c2.658,0.54,4.699,0.688,6.24,0.449c1.946-0.302,3.855-1.731,5.701-3.115c0.644-0.483,1.276-0.956,1.905-1.386    c0.313-0.212,0.641-0.442,0.981-0.684c2.698-1.896,6.057-4.274,9.636-3.926c1.123,0.104,1.949,1.099,1.846,2.223    s-1.1,1.947-2.223,1.846c-2.092-0.203-4.76,1.688-6.908,3.2c-0.357,0.251-0.702,0.494-1.03,0.718    c-0.581,0.396-1.164,0.834-1.757,1.277c-2.143,1.605-4.571,3.426-7.527,3.884c-2.027,0.313-4.539,0.155-7.679-0.482    c-1.146-0.233-2.149-0.637-3.12-1.026c-1.256-0.505-2.344-0.94-3.432-0.878c-6.718,0.388-12.868,2.366-19.379,4.46    c-2.246,0.722-4.568,1.468-6.916,2.145c-0.725,0.209-1.453,0.465-2.182,0.718C21.388,95.272,19.299,96,17.18,96z"/></g></g></g><g id="SvgjsG1489" featureKey="nameFeature-0" transform="matrix(1.214771740022981,0,0,1.214771740022981,121.05636518700082,29.407188944123945)" fill="#fff"><path d="M1.6 16.88 l9.4 23.08 l6.24 0 l9.44 -23.08 l-7.16 0 l-5.4 14.32 l-5.36 -14.32 l-7.16 0 z M29.880000000000003 30.72 l0 -7.48 l12.12 0 l0 7.48 l-12.12 0 z M45.24 17.04 c0 7.52 -0.04 15.04 -0.04 22.6 l0 0.36 l6.48 0 l0 -11.84 c0 -2.88 2.52 -5.4 5.6 -5.4 c2.96 0 5.28 2.28 5.6 5 c0.04 0.4 0 0.84 0 1.24 l0.04 2.92 l0 8 l6.48 0.08 l0 -12.04 c0 -2.92 -1.48 -5.8 -3.6 -7.84 c-2.32 -2.24 -5.16 -3.44 -8.52 -3.44 c-2 0 -3.92 0.44 -5.68 1.32 l0 -1.2 l-6.36 0 l0 0.24 z M72.6 28.36 c0 6.2 5.24 11.56 11.96 11.56 c6.68 0 11.92 -5.36 11.92 -11.56 c0 -6.16 -5.24 -11.52 -11.92 -11.52 c-6.72 0 -11.96 5.36 -11.96 11.52 z M90.08 28.36 c0 3 -2.32 5.52 -5.52 5.52 s-5.56 -2.56 -5.56 -5.52 c0 -2.92 2.36 -5.48 5.56 -5.48 s5.52 2.52 5.52 5.48 z M103.11999999999999 22.32 l0 17.68 l6.48 0 l0 -7.04 c0 -2.56 -0.08 -5.16 -0.08 -7.72 l0 -2.92 l6.4 -0.08 l0 -5.48 l-6.4 0.04 l0 -8.08 l-6.36 0 l0 8.12 l-6.4 0 l0 5.48 l6.36 0 z M117.03999999999999 28.36 c0 -6.16 5.24 -11.52 11.96 -11.52 c6.68 0 11.92 5.36 11.92 11.52 c0 0.84 -0.08 1.64 -0.24 2.4 l-16.68 0.04 c0.88 1.8 2.72 3.08 5 3.08 c1.56 0 2.96 -0.64 3.92 -1.6 l7.28 0 c-1.64 4.36 -6 7.64 -11.2 7.64 c-6.72 0 -11.96 -5.2 -11.96 -11.4 l0 -0.16 z M124.2 25.6 l-0.2 0.56 l10.12 0 l-0.32 -0.56 c-0.96 -1.6 -2.68 -2.72 -4.8 -2.72 s-3.88 1.12 -4.8 2.72 z M144.16 32.96 c0 5.6 7.08 7.04 11.4 7.04 c4.28 0 10.68 -1.4 10.68 -6.8 c0 -1.64 -0.48 -2.44 -1.44 -3.64 c-0.8 -1.04 -2 -1.8 -3.12 -2.36 c-0.84 -0.44 -1.76 -0.8 -2.68 -1.08 c-0.92 -0.32 -1.84 -0.56 -2.72 -0.88 c-0.48 -0.16 -1.08 -0.32 -1.72 -0.56 c-0.6 -0.2 -1.2 -0.4 -1.56 -0.6 c-0.2 -0.12 -0.4 -0.24 -0.56 -0.36 s-0.2 -0.24 -0.2 -0.36 c0 -0.32 0.32 -0.6 0.96 -0.84 c0.64 -0.2 1.36 -0.28 1.8 -0.28 c0.68 0 1.6 0.16 2.36 0.48 c0.76 0.36 1.24 0.84 1.24 1.48 l0 1.04 l7.28 -0.04 l0 -1.12 c0 -2.36 -1.28 -4.08 -3.2 -5.36 c-2.36 -1.52 -5.04 -2 -7.8 -2 c-4.32 0 -10.52 1.8 -10.52 7.08 c0 0.92 0.24 1.8 0.72 2.6 c0.4 0.64 0.92 1.36 1.56 1.88 c1.32 1.04 3.32 1.88 4.92 2.4 c0.84 0.28 1.76 0.48 2.6 0.8 c0.48 0.16 1.12 0.32 1.76 0.52 c0.64 0.24 1.2 0.44 1.64 0.64 c0.44 0.24 0.72 0.52 0.72 0.84 c0 0.36 -0.28 0.6 -1 0.8 c-0.64 0.16 -1.4 0.16 -1.84 0.16 c-1 0 -2.28 -0.12 -3.04 -0.56 c-0.24 -0.12 -0.48 -0.32 -0.68 -0.52 s-0.32 -0.36 -0.32 -0.52 l-0.04 -1.4 l-7.24 0 l0 0.16 c0.04 0.44 0.04 0.88 0.04 1.36 z"/></g>
			</g>
		</svg>
	